# xmcd CD database file
#
# Track frame offsets:
#	150
#	16300
#	29332
#	38052
#	50137
#	62917
#	76607
#	88037
#	98965
#	110447
#	119925
#	131265
#	144385
#	154890
#
# Disc length: 2289 seconds
#
# Revision: 0
# Processed by: cddbd v1.5.2PL0 Copyright (c) Steve Scherf et al.
# Submitted via: NeoAudio 9.9.9
#
DISCID=bb08ef0e
DTITLE=Fausto Papetti - El Embrujo del Saxo
DYEAR=1994
DGENRE=Blues
TTITLE0=Wabash Blues
TTITLE1=R Valija
TTITLE2=Twist Midnight
TTITLE3=Unchained MelodY
TTITLE4=Saint Luis
TTITLE5=Harlem Notturno
TTITLE6=Dancing in the dark
TTITLE7=Blue Moon
TTITLE8=Blue Shadow
TTITLE9=Tempo di Blues
TTITLE10=Smoke in Your eyes
TTITLE11=Stormy Weather
TTITLE12=Danny Boy
TTITLE13=Lady sings the Blues
EXTD=YEAR: 1994
EXTT0=
EXTT1=
EXTT2=
EXTT3=
EXTT4=
EXTT5=
EXTT6=
EXTT7=
EXTT8=
EXTT9=
EXTT10=
EXTT11=
EXTT12=
EXTT13=
PLAYORDER=
